<svg width="199px"  height="199px"  xmlns="http://www.w3.org/2000/svg" viewBox="0 0 100 100" preserveAspectRatio="xMidYMid" class="lds-wedges" style="background: none; shape-rendering: auto;"><g transform="translate(50,50)" class=""><g ng-attr-transform="scale({{config.scale}})" transform="scale(0.7)" class=""><g transform="translate(-50,-50)" class=""><g class="" transform="rotate(71.2348 50 50)"><animateTransform attributeName="transform" type="rotate" calcMode="linear" values="0 50 50;360 50 50" keyTimes="0;1" dur="1.8s" begin="0s" repeatCount="indefinite" class=""></animateTransform><path ng-attr-fill-opacity="{{config.opacity}}" ng-attr-fill="{{config.c1}}" d="M50 50L50 0A50 50 0 0 1 100 50Z" fill-opacity="0.8" fill="#4658ac" class=""></path></g><g class="" transform="rotate(53.4261 50 50)"><animateTransform attributeName="transform" type="rotate" calcMode="linear" values="0 50 50;360 50 50" keyTimes="0;1" dur="2.4s" begin="0s" repeatCount="indefinite" class=""></animateTransform><path ng-attr-fill-opacity="{{config.opacity}}" ng-attr-fill="{{config.c2}}" d="M50 50L50 0A50 50 0 0 1 100 50Z" transform="rotate(90 50 50)" fill-opacity="0.8" fill="#e7008a" class=""></path></g><g class="" transform="rotate(35.6174 50 50)"><animateTransform attributeName="transform" type="rotate" calcMode="linear" values="0 50 50;360 50 50" keyTimes="0;1" dur="3.6s" begin="0s" repeatCount="indefinite" class=""></animateTransform><path ng-attr-fill-opacity="{{config.opacity}}" ng-attr-fill="{{config.c3}}" d="M50 50L50 0A50 50 0 0 1 100 50Z" transform="rotate(180 50 50)" fill-opacity="0.8" fill="#ff003a" class=""></path></g><g class="" transform="rotate(17.8087 50 50)"><animateTransform attributeName="transform" type="rotate" calcMode="linear" values="0 50 50;360 50 50" keyTimes="0;1" dur="7.2s" begin="0s" repeatCount="indefinite" class=""></animateTransform><path ng-attr-fill-opacity="{{config.opacity}}" ng-attr-fill="{{config.c4}}" d="M50 50L50 0A50 50 0 0 1 100 50Z" transform="rotate(270 50 50)" fill-opacity="0.8" fill="#ff6d00" class=""></path></g></g></g></g></svg>